<svg width="100" height="100" viewBox="0 0 100 100" xmlns="http://www.w3.org/2000/svg">
  <title>Daisy riding a bike</title>
  <g fill="none" stroke="#2f3b69" stroke-width="2" stroke-linecap="round" stroke-linejoin="round">
    <circle cx="50" cy="20" r="10" fill="#f9d6c1" stroke="none" />
    <path d="M45 30 C40 40 40 55 50 60" fill="none" stroke="#f26f8b" stroke-width="5" />
    <path d="M50 60 L40 85" />
    <path d="M50 60 L60 85" />
    <path d="M40 45 L30 55" />
    <path d="M60 45 L70 55" />
    <circle cx="35" cy="85" r="12" fill="none" stroke="#333" stroke-width="3" />
    <circle cx="65" cy="85" r="12" fill="none" stroke="#333" stroke-width="3" />
    <path d="M35 85 L50 65 L65 85" />
    <path d="M35 85 L48 85" />
    <path d="M50 65 L70 65" />
  </g>
  <path d="M47 14 C48 10 52 10 53 14" stroke="#61304b" stroke-width="3" stroke-linecap="round" />
  <circle cx="45" cy="15" r="1.3" fill="#2f3b69" />
  <circle cx="55" cy="15" r="1.3" fill="#2f3b69" />
  <path d="M45 22 Q50 25 55 22" stroke="#b84f6f" stroke-width="2" fill="none" stroke-linecap="round" />
  <path d="M55 35 Q60 30 65 32" stroke="#f6a9b1" stroke-width="4" stroke-linecap="round" />
</svg>
